<svg width="39" height="21" viewBox="0 0 39 21" fill="none" xmlns="http://www.w3.org/2000/svg">
<g clip-path="url(#clip0_211_2081)">
<path d="M38.8874 7.48053C38.8914 7.4515 38.8914 7.42216 38.8874 7.39314C38.8912 7.36949 38.8912 7.34537 38.8874 7.32167L38.6038 5.28034C38.5629 5.03612 38.4535 4.80786 38.2878 4.62108L38.2392 4.56548L38.1501 4.4781L33.2403 0.331912L33.3781 0.466952C33.2654 0.33478 33.1239 0.22906 32.9641 0.15758C32.8043 0.0860993 32.6301 0.0506743 32.4545 0.0539184H30.9637C30.7213 0.0492097 30.4844 0.12477 30.2912 0.26838C30.0884 0.125635 29.8441 0.0504613 29.5944 0.0539184H28.1037C27.9081 0.0508085 27.7153 0.0983802 27.5446 0.191831C27.3738 0.285281 27.2313 0.421293 27.1315 0.586089C26.9775 0.821467 26.9196 1.10506 26.9694 1.38038L27.1558 2.66712C27.0323 2.59852 26.8926 2.56292 26.7506 2.56388H19.5318C19.2728 2.56547 19.0198 2.63989 18.8026 2.77833C18.5926 2.90718 18.4241 3.09168 18.3165 3.3105L17.7575 2.84187C17.5374 2.64229 17.247 2.53411 16.9473 2.54005H5.62073C5.36081 2.54469 5.10666 2.61587 4.88347 2.74656C4.57813 2.92177 4.35435 3.20666 4.2596 3.54085L0.662334 15.3361C0.59512 15.5304 0.588508 15.74 0.643345 15.9381C0.698182 16.1361 0.811983 16.3137 0.970212 16.4481C1.01144 16.4823 1.05473 16.5142 1.09985 16.5434C1.09985 16.5434 1.02692 16.4957 0.986407 16.456L5.89622 20.6101C6.10391 20.7976 6.37546 20.9024 6.65775 20.904H18.0735C18.3342 20.8974 18.5885 20.8234 18.8107 20.6895C18.9364 20.6222 19.0489 20.5334 19.1429 20.4274L19.1834 20.3718L19.2482 20.2924L19.2968 20.205L19.8316 20.6578C20.0363 20.8378 20.3019 20.9368 20.577 20.9358H32.0169C32.2773 20.9273 32.5312 20.8535 32.7542 20.7213C32.8771 20.6499 32.9889 20.5616 33.0864 20.4592L33.1269 20.4036L33.1917 20.3242C33.2261 20.2739 33.256 20.2208 33.2808 20.1653C33.3073 20.1172 33.329 20.0666 33.3456 20.0144L36.6269 9.24387V9.14854C36.631 9.11158 36.631 9.0743 36.6269 9.03734V8.96587C36.6308 8.94217 36.6308 8.91805 36.6269 8.89435C36.6306 8.84413 36.6306 8.7937 36.6269 8.74342H37.6802C37.7718 8.75167 37.864 8.75167 37.9556 8.74342H38.0286C38.0879 8.72609 38.145 8.70208 38.1987 8.67196H38.2798L38.4256 8.56076L38.4904 8.51309L38.6038 8.3701V8.32249L38.6848 8.18744C38.6803 8.16118 38.6803 8.13429 38.6848 8.10804C38.6805 8.09514 38.6805 8.0812 38.6848 8.06831C38.7021 8.02174 38.7156 7.97392 38.7253 7.92532C38.7216 7.90966 38.7216 7.89332 38.7253 7.87765C38.7214 7.854 38.7214 7.82983 38.7253 7.80618C38.7253 7.80618 38.8874 7.4964 38.8874 7.48053Z" fill="black"/>
<path d="M17.2795 3.44557C17.3225 3.4837 17.3525 3.53384 17.3656 3.58923C17.3786 3.64462 17.374 3.70259 17.3524 3.75534L13.7633 15.5426C13.7181 15.6713 13.6256 15.7789 13.504 15.8444C13.405 15.9093 13.2905 15.9477 13.1718 15.9556H1.76424C1.66682 15.951 1.57452 15.9115 1.50497 15.8444C1.4636 15.8069 1.43456 15.7582 1.42157 15.7044C1.40858 15.6507 1.41224 15.5943 1.43206 15.5426L5.02933 3.75534C5.07077 3.62502 5.16033 3.51456 5.28048 3.44557C5.38107 3.38533 5.49506 3.3499 5.61267 3.34231H17.0202C17.1169 3.34322 17.2095 3.38014 17.2795 3.44557ZM11.3245 13.1677L13.4716 6.13026H7.45993L5.32099 13.1677H11.3245ZM28.1685 3.56471C28.2074 3.60905 28.2561 3.64422 28.3108 3.66759C28.3655 3.69097 28.4248 3.70196 28.4845 3.69974H29.9671C30.0236 3.70028 30.0792 3.6867 30.1289 3.6603C30.1785 3.63389 30.2204 3.59552 30.2507 3.54882C30.277 3.51234 30.2956 3.47104 30.3054 3.42738C30.3151 3.38372 30.3158 3.33858 30.3074 3.29465L30.0157 1.19773C29.988 1.10068 29.9381 1.01106 29.87 0.93561C29.831 0.891267 29.7824 0.856102 29.7277 0.832724C29.6729 0.809347 29.6136 0.798363 29.5539 0.800582H28.0713C28.0148 0.800044 27.9592 0.813617 27.9096 0.840023C27.8599 0.866428 27.818 0.904794 27.7877 0.951502C27.731 1.0627 27.7067 1.13418 27.731 1.19773L28.0308 3.29465C28.0462 3.39676 28.0944 3.49137 28.1685 3.56471ZM32.8758 1.18184C32.848 1.08479 32.7981 0.995171 32.7299 0.919724C32.6926 0.875543 32.6454 0.840388 32.592 0.816969C32.5387 0.793555 32.4805 0.782508 32.422 0.784695H30.9313C30.8758 0.783145 30.8208 0.796353 30.7723 0.82292C30.7238 0.849487 30.6836 0.888432 30.6558 0.93561C30.6019 1.00608 30.5786 1.09459 30.591 1.18184L30.8907 3.27876C30.9096 3.37979 30.9573 3.47347 31.0285 3.54882C31.0681 3.5923 31.1169 3.62687 31.1714 3.65018C31.226 3.67348 31.285 3.68497 31.3445 3.68384H32.8352C32.8906 3.68456 32.9452 3.67101 32.9935 3.64452C33.0419 3.61803 33.0823 3.57956 33.1107 3.53294C33.1389 3.4974 33.1586 3.45612 33.1684 3.41214C33.1783 3.36816 33.1779 3.32259 33.1674 3.27876L32.8758 1.18184ZM26.8641 4.359L26.7182 3.32642H19.5318C19.419 3.33252 19.3098 3.36818 19.2158 3.42968C19.1562 3.46158 19.1042 3.5058 19.0637 3.55928C19.0231 3.61276 18.9949 3.67423 18.9809 3.73945L18.3813 5.70928C18.3574 5.75851 18.3492 5.81374 18.3579 5.86761C18.3666 5.92149 18.3917 5.9715 18.4299 6.01113C18.4983 6.07409 18.5874 6.11079 18.6811 6.11439H27.4151L25.268 13.1518H16.5584C16.4461 13.1543 16.3367 13.1873 16.2425 13.2471C16.1279 13.3184 16.0442 13.4288 16.0075 13.5569L15.3998 15.5267C15.38 15.5773 15.3748 15.6322 15.3848 15.6854C15.3948 15.7387 15.4196 15.7882 15.4565 15.8285C15.5227 15.8957 15.6126 15.9355 15.7077 15.9397H27.1477C27.266 15.9298 27.38 15.8916 27.4798 15.8285C27.5995 15.7626 27.6892 15.6548 27.731 15.5267L31.0204 4.75614H27.3178C27.259 4.75728 27.2007 4.74659 27.1464 4.72473C27.092 4.70287 27.0428 4.6703 27.0019 4.62905C26.9349 4.55702 26.8875 4.46961 26.8641 4.37488V4.359Z" fill="white"/>
</g>
<defs>
<clipPath id="clip0_211_2081">
<rect width="38.2838" height="20.8821" fill="white" transform="translate(0.606567 0.0537109)"/>
</clipPath>
</defs>
</svg>
