<svg width="33" height="21" viewBox="0 0 33 21" fill="none" xmlns="http://www.w3.org/2000/svg">
<g clip-path="url(#clip0_211_2057)">
<path d="M30.7852 3.23108C30.7852 3.25461 30.7852 3.28403 30.779 3.30169C30.7484 3.53117 30.7484 3.76065 30.7667 3.99602C30.779 4.05486 30.7913 4.11371 30.8403 4.16078C30.92 4.24904 31.0426 4.23139 31.0917 4.12547C31.1162 4.07252 31.1162 4.01956 31.1039 3.9666C31.0426 3.743 31.0304 3.50763 31.0243 3.27815C31.0243 3.26638 31.0243 3.24873 31.0243 3.23108C31.0917 3.22519 31.153 3.2193 31.2082 3.2193C31.2511 3.21342 31.2879 3.20754 31.3186 3.18988C31.4105 3.14281 31.4105 3.04278 31.3124 2.99571C31.2756 2.97805 31.2266 2.97217 31.1837 2.97217C31.0304 2.97805 30.8771 2.97805 30.7238 2.97805C30.6687 2.97805 30.6135 2.98394 30.5583 2.98982C30.5276 2.99571 30.4909 2.99571 30.4664 3.01336C30.4234 3.03101 30.3989 3.06043 30.3989 3.10162C30.405 3.14281 30.4234 3.16635 30.4664 3.184C30.4909 3.20166 30.5215 3.20754 30.5522 3.20754C30.6257 3.21342 30.7055 3.22519 30.7852 3.23108ZM32.4711 3.50175C32.4711 3.50763 32.4772 3.51352 32.4772 3.51352C32.5018 3.67239 32.5263 3.82538 32.5447 3.97837C32.5508 4.03132 32.557 4.0784 32.5937 4.11959C32.6734 4.21962 32.7961 4.20785 32.8512 4.10194C32.8758 4.04898 32.8819 3.99602 32.8696 3.93718C32.8328 3.76065 32.8144 3.58413 32.7777 3.41348C32.7531 3.30757 32.7225 3.20754 32.6918 3.11339C32.6734 3.05455 32.6305 3.01336 32.557 3.00748C32.4834 2.99571 32.4282 3.03101 32.3975 3.08397C32.3608 3.13104 32.3301 3.17812 32.3056 3.23108C32.2627 3.32522 32.2259 3.41937 32.1769 3.50763C32.1707 3.53117 32.1646 3.54882 32.1523 3.56647C32.1462 3.5547 32.1401 3.54882 32.1401 3.54882C32.0603 3.40172 31.9868 3.25461 31.9071 3.11339C31.8948 3.10162 31.8887 3.08985 31.8826 3.07808C31.8458 3.02513 31.8029 2.99571 31.7354 2.99571C31.6741 3.00159 31.625 3.0369 31.5944 3.08985C31.5821 3.11339 31.5821 3.13104 31.576 3.15458C31.5515 3.34287 31.5208 3.53117 31.4963 3.71946C31.484 3.82538 31.4779 3.93129 31.4779 4.03721C31.4718 4.06074 31.4779 4.09017 31.4902 4.11371C31.5025 4.16078 31.5392 4.1902 31.5883 4.19608C31.6496 4.20197 31.6925 4.18431 31.7109 4.13724C31.7293 4.10194 31.7354 4.07252 31.7416 4.0431C31.7661 3.93718 31.7845 3.83715 31.8029 3.73712C31.8151 3.67827 31.8212 3.6312 31.8397 3.56647C31.8519 3.59001 31.8641 3.60766 31.8764 3.62531C31.9316 3.69593 31.9868 3.76654 32.0542 3.82538C32.1217 3.87245 32.1769 3.86657 32.232 3.81361C32.2443 3.80184 32.2504 3.79596 32.2627 3.78419C32.3179 3.70181 32.3853 3.61943 32.4405 3.53705C32.4527 3.52528 32.4589 3.51352 32.4711 3.50175Z" fill="#3A3B7B"/>
<path d="M18.3449 3.34668C18.3023 3.45851 18.2941 3.53907 18.3138 3.60603C18.3355 3.69709 18.392 3.7269 18.4685 3.70374C19.1886 3.53284 20.7677 4.01794 21.3523 4.15315C21.4902 4.18154 21.6024 4.01071 21.5083 3.85756C21.371 3.70923 19.7926 3.07421 19.1903 3.03959C18.9543 3.02679 18.5323 2.96869 18.3449 3.34668Z" fill="#3A3B7B"/>
<path d="M24.5161 1.29105C24.5929 1.33356 24.6358 1.37412 24.657 1.41943C24.6885 1.47887 24.6719 1.51999 24.6189 1.54098C24.1429 1.76395 23.5094 2.72389 23.2538 3.05497C23.1918 3.13113 23.0488 3.08687 23.0272 2.96162C23.0317 2.82001 23.5931 1.77826 23.9065 1.49452C24.0297 1.38374 24.2331 1.16638 24.5161 1.29105Z" fill="#3A3B7B"/>
<path d="M20.7254 0.818539C20.8176 0.751844 20.9134 0.728472 20.9623 0.771816C21.6805 1.36132 22.0614 2.29484 22.2972 3.14946C22.3061 3.16937 22.3067 3.19794 22.2996 3.22775C22.2966 3.25323 22.2772 3.28014 22.2464 3.30096C22.2135 3.32395 22.1852 3.33095 22.1719 3.31114C21.8571 2.90023 20.0593 1.30145 20.7254 0.818539Z" fill="#3A3B7B"/>
<path d="M5.51689 11.039C5.68901 10.916 5.87615 10.8136 6.07417 10.7341C6.28135 10.6773 6.50218 10.6867 6.70328 10.761C6.90434 10.8353 7.07479 10.9704 7.18873 11.146C7.29066 11.321 7.33053 11.5232 7.30239 11.7219C7.27426 11.9206 7.17962 12.1052 7.03268 12.2478C6.91878 12.3634 6.78946 12.4641 6.64818 12.5473C6.01846 12.9378 5.38313 13.3068 4.74783 13.6973C4.61783 13.795 4.47993 13.8827 4.33543 13.9594C4.11565 14.0646 3.86447 14.0928 3.62533 14.039C3.38619 13.9854 3.17413 13.8531 3.02581 13.6652C2.91494 13.5322 2.82137 13.3867 2.74717 13.232C2.1453 12.0178 1.52115 10.809 0.941566 9.57343C0.674068 9.03859 0.456728 8.42347 0.244959 7.82977C0.153339 7.65727 0.135447 7.45729 0.195095 7.27231C0.254742 7.08734 0.387223 6.932 0.564355 6.83932C0.741489 6.74665 0.949297 6.72399 1.14359 6.7761C1.33788 6.82822 1.50332 6.95103 1.60473 7.11839C1.91644 7.51597 2.19236 7.93827 2.42952 8.38071C3.03138 9.45043 3.60539 10.5202 4.18497 11.5578C4.21872 11.6151 4.25593 11.6705 4.29642 11.7236C4.73265 11.5476 5.14295 11.3174 5.51689 11.039Z" fill="#3A3B7B"/>
<path d="M11.7398 10.6658C10.3634 12.2116 8.05619 11.8211 6.89704 9.83142C6.07224 8.41936 5.92736 6.08733 7.72184 4.61644C8.10503 4.3085 8.56323 4.09873 9.05372 4.00669C9.65512 3.92394 10.2684 4.02577 10.8059 4.29763C11.3433 4.56949 11.7775 4.99745 12.0464 5.52038C13.0272 7.23197 12.8879 9.41421 11.7398 10.6658ZM11.1826 7.0608C11.0363 6.6402 10.743 6.28112 10.3522 6.04453C10.1311 5.89327 9.8624 5.81973 9.59142 5.83629C9.3204 5.85285 9.06363 5.95851 8.86426 6.13545C8.06736 6.81476 7.90014 8.42473 8.47971 9.38214C8.5536 9.53827 8.66208 9.677 8.79766 9.78866C8.93324 9.90033 9.09261 9.98222 9.2646 10.0286C9.43659 10.0749 9.61703 10.0847 9.79337 10.0571C9.9697 10.0295 10.1376 9.96525 10.2854 9.86886C10.7173 9.5474 11.0343 9.10477 11.192 8.60251C11.3499 8.1002 11.3407 7.5632 11.1659 7.06617L11.1826 7.0608Z" fill="#3A3B7B"/>
<path d="M17.3572 7.73473C17.2163 7.76381 17.0707 7.76556 16.9291 7.73982C16.7875 7.71408 16.6526 7.66146 16.5325 7.58498C16.4274 7.52727 16.3369 7.44795 16.2675 7.35266C16.1982 7.25737 16.1518 7.14855 16.1315 7.03395C16.1113 6.91939 16.1177 6.80195 16.1504 6.69005C16.1831 6.57816 16.2413 6.47461 16.3207 6.38685C16.4591 6.2105 16.6554 6.08424 16.878 6.0285C17.4591 5.86665 18.0573 5.76797 18.6613 5.73434C18.794 5.71952 18.9285 5.7303 19.0568 5.76604C19.1851 5.80182 19.3047 5.86179 19.4085 5.94253C19.5123 6.02323 19.5983 6.12306 19.6614 6.2361C19.7245 6.34914 19.7634 6.47315 19.7759 6.60082C19.95 7.22797 19.9691 7.88553 19.8316 8.52102C19.3301 10.5749 17.6025 11.2809 15.6631 10.623C15.1187 10.4471 14.6414 10.1194 14.2922 9.68167C13.8264 9.15454 13.4962 8.52983 13.3281 7.85777C13.1919 7.2593 13.2068 6.6383 13.3716 6.04653C13.5364 5.45476 13.8463 4.9094 14.2755 4.45599C14.6827 3.96319 15.2113 3.57536 15.8136 3.32741C16.1942 3.12608 16.6395 3.06883 17.0619 3.16695C17.1577 3.1924 17.2447 3.242 17.3138 3.31059C17.3829 3.37919 17.4317 3.46427 17.455 3.55704C17.4783 3.64981 17.4753 3.74687 17.4464 3.83816C17.4174 3.92946 17.3636 4.01165 17.2904 4.07623C17.1512 4.19714 17 4.30463 16.839 4.39715C16.3435 4.69997 15.9124 5.09018 15.5684 5.54711C15.3429 5.84279 15.1876 6.18233 15.1134 6.54178C15.0393 6.90123 15.0481 7.27192 15.1393 7.62779C15.2657 8.11298 15.5461 8.5485 15.9417 8.874C17.1678 9.94376 18.7616 8.91143 18.483 7.45125C18.0762 7.54755 17.7195 7.64917 17.3572 7.73473Z" fill="#3A3B7B"/>
<path d="M24.8473 10.7514C23.0361 11.8211 20.9742 10.7514 20.5227 8.50493C20.194 6.90032 20.8181 4.65386 23.0027 3.79807C23.4675 3.6199 23.9716 3.55735 24.4683 3.61621C25.0651 3.72106 25.6126 4.00304 26.0335 4.42239C26.4544 4.84174 26.7276 5.37729 26.8145 5.9536C27.1823 7.86306 26.3464 9.90093 24.8473 10.7514ZM25.4771 7.15169C25.4765 6.70736 25.3127 6.2774 25.0145 5.93754C24.8551 5.72733 24.6246 5.57672 24.3624 5.51134C24.1002 5.44601 23.8225 5.46996 23.5767 5.5792C22.5959 5.98567 21.9048 7.46191 22.1556 8.54773C22.1748 8.71812 22.2324 8.88245 22.3247 9.02921C22.4169 9.17598 22.5414 9.30163 22.6895 9.39743C22.8375 9.49317 23.0056 9.55676 23.182 9.58369C23.3584 9.61057 23.5387 9.6002 23.7104 9.55327C24.2289 9.37944 24.6778 9.05458 24.9945 8.62403C25.3112 8.19347 25.4799 7.67872 25.4771 7.15169Z" fill="#3A3B7B"/>
<path d="M28.646 11.2007C28.6187 11.3965 28.5115 11.5738 28.3479 11.6937C28.1843 11.8135 27.9779 11.8661 27.7739 11.8399C27.5699 11.8136 27.3852 11.7107 27.2603 11.5537C27.1354 11.3967 27.0806 11.1985 27.108 11.0028C27.1353 10.807 27.2426 10.6297 27.4061 10.5098C27.5697 10.39 27.7761 10.3374 27.9801 10.3636C28.1841 10.3899 28.3688 10.4928 28.4937 10.6498C28.6186 10.8068 28.6734 11.0049 28.646 11.2007ZM28.1612 3.98529C28.2672 3.82992 28.4227 3.71161 28.6045 3.64799C28.7863 3.58438 28.9846 3.57886 29.1699 3.63228C29.3583 3.67752 29.5247 3.7835 29.6414 3.93247C29.7581 4.08146 29.8179 4.26438 29.8108 4.45063C29.7862 4.74937 29.7397 5.04607 29.6715 5.3385C29.4876 6.32803 29.3092 7.31751 29.1142 8.29635C29.025 8.68681 28.908 9.06121 28.7798 9.457C28.7352 9.58073 28.6607 9.69253 28.5625 9.78328C28.5014 9.85154 28.4234 9.90389 28.3356 9.9355C28.2479 9.96715 28.1532 9.97702 28.0604 9.96422C27.9677 9.95142 27.8797 9.91637 27.8048 9.86232C27.7299 9.80823 27.6704 9.73689 27.6318 9.65491C27.5656 9.50783 27.5296 9.34978 27.5259 9.18958C27.5259 8.52633 27.5259 7.85776 27.5705 7.18914C27.6463 6.23499 27.7953 5.28747 28.0163 4.35435C28.0424 4.22933 28.0914 4.10978 28.1612 4.00134V3.98529Z" fill="#3A3B7B"/>
<path fill-rule="evenodd" clip-rule="evenodd" d="M3.16231 15.4988C3.09651 15.6398 3.07847 15.797 3.11062 15.9482C3.13201 16.1476 3.179 16.3438 3.2505 16.5321C3.33978 16.7628 3.43968 16.9909 3.56285 17.272C3.59118 17.3367 3.62078 17.4043 3.65176 17.4753C3.81787 17.8562 4.02629 18.3429 4.3043 19.0474C4.38299 19.2475 4.45287 19.4493 4.52323 19.6524C4.55166 19.7345 4.58019 19.8168 4.60939 19.8994C4.71406 20.1928 4.89416 20.4564 5.13289 20.6653C5.23426 20.7802 5.36872 20.8639 5.51949 20.9057C5.6732 20.9484 5.83669 20.9457 5.98877 20.8979C6.14084 20.8502 6.27442 20.7596 6.37214 20.638C6.46795 20.5188 6.52492 20.3751 6.536 20.225C6.59816 19.9325 6.57694 19.6293 6.47449 19.3474C6.3119 18.8793 6.12668 18.4106 5.9131 17.9521L5.91212 17.9501C5.56076 17.2327 5.2036 16.5203 4.82954 15.8077L4.82674 15.8027C4.71724 15.617 4.57493 15.451 4.40622 15.3122C4.29668 15.1883 4.1456 15.1047 3.97875 15.0759C3.80835 15.0465 3.6326 15.0761 3.48289 15.1596C3.34126 15.2372 3.22899 15.356 3.16231 15.4988Z" fill="#3A3B7B"/>
<path fill-rule="evenodd" clip-rule="evenodd" d="M8.52889 13.7324C7.97797 13.5955 7.4026 13.5755 6.84289 13.674C6.40936 13.715 5.98299 13.8109 5.68692 14.001C5.53633 14.0978 5.41459 14.222 5.34686 14.3799C5.27877 14.5387 5.27008 14.7203 5.32588 14.9226C5.42776 15.2932 5.56007 15.6535 5.69192 16.0127L5.71328 16.0709L5.71379 16.0722C6.11077 17.1156 6.51153 18.1555 6.91594 19.1918C6.96309 19.3552 7.02978 19.5127 7.11466 19.6613L7.11625 19.664C7.22837 19.8487 7.37217 20.0138 7.54159 20.1525C7.62632 20.2287 7.73111 20.2815 7.84472 20.305C7.95946 20.3288 8.07878 20.3219 8.18968 20.285C8.30063 20.2482 8.39887 20.1828 8.47374 20.096C8.5474 20.0106 8.59563 19.9078 8.61334 19.7983C8.68644 19.501 8.66302 19.1892 8.54618 18.905C8.50973 18.8093 8.48113 18.7115 8.45098 18.6086C8.44093 18.5743 8.43075 18.5394 8.42 18.5039C9.3457 18.1566 10.3307 17.6896 10.677 16.6032C10.8127 16.2278 10.824 15.8213 10.7094 15.4394C10.5947 15.0571 10.3594 14.7182 10.0359 14.4695C9.59555 14.1213 9.08122 13.8697 8.52889 13.7324ZM7.00179 15.0649C7.02002 15.0599 7.03838 15.0552 7.0568 15.0509C7.65946 14.9599 8.27605 15.0811 8.79304 15.392C9.02088 15.544 9.11421 15.713 9.13025 15.8756C9.14679 16.043 9.08337 16.2244 8.95597 16.3988C8.71523 16.7282 8.27591 16.9918 7.87907 17.041C7.58978 16.4015 7.29599 15.7362 7.00179 15.0649Z" fill="#3A3B7B"/>
<path d="M12.2018 12.5619C12.8579 12.2711 13.6706 12.2209 14.3065 12.4254C14.4667 12.4701 14.6057 12.567 14.6996 12.6993C14.793 12.8309 14.8361 12.9894 14.8217 13.1478C14.8208 13.2507 14.7945 13.3519 14.745 13.4432C14.6946 13.5362 14.6216 13.6161 14.5323 13.6763C14.4429 13.7364 14.3398 13.7751 14.2316 13.7889C14.1233 13.8027 14.0133 13.7914 13.9106 13.7557L13.9028 13.753L13.8955 13.7493C13.8429 13.7229 13.7871 13.7031 13.7294 13.6901L13.7258 13.6893C13.2784 13.5753 12.8564 13.7643 12.7023 13.9964C12.6288 14.1071 12.6196 14.2189 12.6809 14.3206C12.7464 14.4294 12.9073 14.5516 13.2327 14.6387C13.3222 14.6623 13.4139 14.685 13.507 14.7081C13.7643 14.7721 14.0317 14.8385 14.2903 14.9306L14.2913 14.931C15.4843 15.3666 15.9285 16.2689 15.7764 17.1175C15.626 17.9568 14.8957 18.7205 13.7976 18.9007C13.398 18.9857 12.9821 18.9691 12.5912 18.8526C12.1993 18.7358 11.846 18.5226 11.5665 18.2341L11.5592 18.2266C11.4709 18.1179 11.4116 17.9902 11.3853 17.8548C11.361 17.7325 11.3738 17.6062 11.4219 17.4906C11.4698 17.3757 11.5507 17.2763 11.6552 17.2039C11.7655 17.1217 11.8986 17.0725 12.0378 17.0622C12.1765 17.052 12.3154 17.0809 12.4372 17.1454C12.5589 17.2018 12.6721 17.2738 12.7737 17.3594L12.7757 17.361C12.9554 17.5188 13.1729 17.5599 13.3814 17.5218C13.593 17.4832 13.7919 17.363 13.9199 17.2036C14.047 17.0452 14.0981 16.857 14.0375 16.6743C13.9765 16.4903 13.7933 16.2841 13.3907 16.1118C13.2854 16.0689 13.1763 16.0343 13.0628 16.0006C13.0321 15.9915 13.001 15.9825 12.9695 15.9733C12.8856 15.9488 12.7992 15.9237 12.7145 15.8959C12.6562 15.8768 12.5983 15.8587 12.541 15.8408C12.3844 15.7918 12.2317 15.7441 12.0848 15.6801C11.765 15.5756 11.4887 15.375 11.297 15.1078C11.1046 14.8396 11.0077 14.5189 11.0209 14.1935C11.0219 13.4006 11.5422 12.8544 12.2018 12.5619Z" fill="#3A3B7B"/>
<path d="M20.5196 12.4775C20.3923 12.4178 20.2517 12.3895 20.1102 12.3951C19.9688 12.4007 19.831 12.44 19.7093 12.5095C19.5884 12.5785 19.4872 12.6751 19.4147 12.7907C19.3482 12.8881 19.3021 12.997 19.2792 13.1114C19.2562 13.2257 19.2568 13.3431 19.2808 13.4572C19.3045 13.6037 19.3307 13.7462 19.3567 13.8867C19.3996 14.1193 19.4414 14.3466 19.469 14.5783L19.47 14.5842C19.5328 14.9477 19.5656 15.3153 19.5686 15.6837L19.5689 15.6889C19.5903 16.0868 19.4491 16.4769 19.1754 16.7765L19.1711 16.7818C19.082 16.8913 18.963 16.9749 18.8272 17.0232C18.6915 17.0715 18.5445 17.0826 18.4026 17.0553C18.2606 17.0279 18.1294 16.9632 18.0236 16.8684C17.9178 16.7736 17.8415 16.652 17.8034 16.518C17.7221 16.2355 17.675 15.945 17.663 15.6522L17.8019 13.5298C17.804 13.5021 17.8063 13.4736 17.8087 13.4449C17.814 13.3804 17.8194 13.3148 17.8217 13.2535C17.8249 13.1634 17.8221 13.0708 17.8003 12.9831C17.7779 12.8934 17.7353 12.8081 17.6598 12.7355C17.585 12.6636 17.484 12.6106 17.357 12.5745C17.1273 12.5107 16.9331 12.5127 16.7712 12.5786C16.6093 12.6445 16.4983 12.7669 16.4198 12.9083C16.3419 13.0485 16.2919 13.2145 16.254 13.3808C16.2259 13.5041 16.2033 13.6336 16.1819 13.7569C16.1745 13.7994 16.1672 13.8411 16.1599 13.8816L16.1597 13.8828C16.0449 14.5589 16.0107 15.2453 16.0578 15.9287C16.0666 16.2981 16.1469 16.6627 16.2946 17.0039C16.4612 17.4441 16.763 17.8255 17.1601 18.0978C17.558 18.3707 18.0329 18.521 18.5219 18.5289C19.0108 18.5369 19.4908 18.402 19.8981 18.1423C20.3048 17.883 20.62 17.5113 20.802 17.0764C21.0566 16.5224 21.1761 15.92 21.1514 15.315C21.1365 14.8732 21.1114 14.4281 21.0865 13.9853C21.0743 13.7681 21.0621 13.5513 21.0511 13.3359C21.0456 13.1198 20.9714 12.9106 20.8384 12.7362C20.7561 12.6259 20.6465 12.537 20.5196 12.4775Z" fill="#3A3B7B"/>
<path d="M25.0222 15.8055C25.0093 15.8212 24.9957 15.8375 24.9815 15.8545C24.8781 15.2815 24.7822 14.7088 24.6861 14.1352C24.6517 13.9294 24.617 13.7227 24.5822 13.5166L24.5783 13.4937L24.5656 13.4738C24.5416 13.4364 24.5392 13.3998 24.5392 13.3216V13.3125L24.5378 13.3036C24.5118 13.1422 24.4357 12.9919 24.3195 12.8725C24.2036 12.7535 24.053 12.6706 23.8874 12.6347C23.7221 12.5955 23.5484 12.6041 23.3882 12.6595C23.2283 12.7147 23.089 12.8139 22.9876 12.9446C22.9033 13.0449 22.8342 13.1562 22.7824 13.2751C22.6648 13.5313 22.5463 13.7882 22.4274 14.0457L22.4253 14.0501C22.1285 14.693 21.8297 15.3402 21.5395 15.9925L21.5386 15.9946C21.3605 16.4175 21.2135 16.8632 21.067 17.3074C21.0377 17.3961 21.0085 17.4848 20.979 17.5732C20.9261 17.7134 20.9029 17.8623 20.9109 18.0112C20.9012 18.1444 20.9345 18.2774 21.0062 18.392C21.0793 18.509 21.1888 18.601 21.3192 18.6552C21.4574 18.7134 21.612 18.7257 21.7584 18.6903C21.9045 18.655 22.0343 18.574 22.1272 18.4602C22.2459 18.3201 22.3481 18.1672 22.4313 18.0053C22.6771 17.5227 22.912 17.0343 23.1458 16.548C23.2363 16.3599 23.3242 16.1915 23.4242 16.008C23.4311 16.0306 23.4381 16.0527 23.4454 16.0748C23.5502 16.5178 23.7271 16.942 23.9697 17.3321C24.0155 17.4147 24.0795 17.4869 24.1571 17.5438C24.2356 17.6013 24.3262 17.6417 24.4226 17.6622C24.519 17.6827 24.619 17.6828 24.7154 17.6624C24.8117 17.6422 24.9026 17.6017 24.9812 17.5445L25.1367 17.4328L26.3436 16.4571L26.2722 16.8936C26.1742 17.4937 26.077 18.0887 25.9737 18.6839C25.9062 18.9477 25.9063 19.2232 25.974 19.4869C26.0034 19.6353 26.0782 19.7719 26.1888 19.8794C26.3004 19.9877 26.4433 20.0613 26.5991 20.0906C26.7548 20.12 26.9161 20.1037 27.0621 20.0439C27.2059 19.9851 27.3283 19.8866 27.4138 19.7611C27.6128 19.5242 27.7367 19.2373 27.7707 18.9347C27.8219 18.5073 27.8798 18.0741 27.9377 17.641C28.0044 17.1418 28.0711 16.6427 28.1274 16.1533L28.1276 16.1517C28.1818 15.6159 28.208 15.0779 28.2062 14.5396C28.2181 14.3695 28.1739 14.2 28.0799 14.0552C27.9855 13.9099 27.8458 13.7969 27.6806 13.7322C27.5088 13.6573 27.3165 13.6372 27.132 13.6751C26.9486 13.7127 26.7827 13.8055 26.6581 13.9399C26.4355 14.1375 26.2267 14.3489 26.033 14.5728L26.0317 14.5743C25.8202 14.8273 25.6102 15.0851 25.4015 15.3414C25.2746 15.4971 25.1481 15.6525 25.0222 15.8055Z" fill="#3A3B7B"/>
</g>
<defs>
<clipPath id="clip0_211_2057">
<rect width="32.7153" height="20.186" fill="white" transform="translate(0.160461 0.749817)"/>
</clipPath>
</defs>
</svg>
